<?xml version="1.0" encoding="UTF-8"?>
<svg width="18px" height="18px" viewBox="0 0 18 18" version="1.1" xmlns="http://www.w3.org/2000/svg" xmlns:xlink="http://www.w3.org/1999/xlink">
    <!-- Generator: Sketch 60 (88103) - https://sketch.com -->
    <title>银行卡</title>
    <desc>Created with Sketch.</desc>
    <defs>
        <linearGradient x1="0%" y1="0%" x2="100%" y2="100%" id="linearGradient-1">
            <stop stop-color="#EAC02B" offset="0%"></stop>
            <stop stop-color="#FFA718" offset="100%"></stop>
        </linearGradient>
    </defs>
    <g id="商户收银台" stroke="none" stroke-width="1" fill="none" fill-rule="evenodd">
        <g id="03" transform="translate(-580.000000, -397.000000)" fill="url(#linearGradient-1)" fill-rule="nonzero">
            <g id="支付方式" transform="translate(560.000000, 337.000000)">
                <g id="编组-2" transform="translate(0.000000, 48.000000)">
                    <path d="M30.8,23.1375 L31.5875,23.1375 L31.5875,23.925 L30.8,23.925 L30.8,23.1375 Z M32.825,23.1375 L33.6125,23.1375 L33.6125,23.925 L32.825,23.925 L32.825,23.1375 Z M29,12 C24.05,12 20,16.05 20,21 C20,25.95 24.05,30 29,30 C33.95,30 38,25.95 38,21 C38,16.05 33.95,12 29,12 Z M34.625,24.4875 C34.625,24.4875 34.625,25.1625 33.8375,25.275 L24.275,25.275 C24.275,25.275 23.7125,25.275 23.6,24.4875 L23.6,20.1 L34.625,20.1 L34.625,24.4875 Z M34.625,17.4 L34.625,18.75 L23.6,18.75 L23.6,17.4 C23.7125,16.8375 24.275,16.8375 24.275,16.8375 L33.8375,16.8375 C34.625,16.8375 34.625,17.4 34.625,17.4 Z M31.8125,23.1375 L32.6,23.1375 L32.6,23.925 L31.8125,23.925 L31.8125,23.1375 Z" id="银行卡"></path>
                </g>
            </g>
        </g>
    </g>
</svg>