<?xml version="1.0" encoding="UTF-8"?>
<svg width="18px" height="18px" viewBox="0 0 18 18" version="1.1" xmlns="http://www.w3.org/2000/svg" xmlns:xlink="http://www.w3.org/1999/xlink">
    <!-- Generator: Sketch 60 (88103) - https://sketch.com -->
    <title>支付宝</title>
    <desc>Created with Sketch.</desc>
    <defs>
        <linearGradient x1="0%" y1="0%" x2="100%" y2="100%" id="linearGradient-1">
            <stop stop-color="#00BDFF" offset="0%"></stop>
            <stop stop-color="#266EFF" offset="100%"></stop>
        </linearGradient>
    </defs>
    <g id="商户收银台" stroke="none" stroke-width="1" fill="none" fill-rule="evenodd">
        <g id="03" transform="translate(-580.000000, -438.000000)" fill="url(#linearGradient-1)" fill-rule="nonzero">
            <g id="支付方式" transform="translate(560.000000, 337.000000)">
                <g id="编组-2" transform="translate(0.000000, 48.000000)">
                    <path d="M23.3526581,65.1906066 C23.3526581,63.9633799 24.252496,63.3098272 24.9056042,63.2281332 C26.86765,62.9013568 29.5662567,64.537054 29.5662567,64.537054 C28.3398647,66.091057 26.6227344,66.9079979 25.3147039,66.9079979 C24.1699504,66.8253961 23.3526581,66.1736588 23.3526581,65.1906066 L23.3526581,65.1906066 Z M37.25207,65.8432516 C37.0062473,65.7615575 31.4475711,64.045074 31.609941,63.8807781 C32.4281404,62.9004491 33.0005172,60.6093838 33.0005172,60.6093838 L33.0005172,60.1174039 L29.7295337,60.1174039 L29.7295337,58.8910849 L33.736171,58.8910849 L33.736171,58.1549304 L29.7295337,58.1549304 L29.7295337,56.3549374 L28.094042,56.3549374 L28.094042,58.0723286 L24.4974116,58.0723286 L24.4974116,58.8093908 L28.0949491,58.8093908 L28.0949491,60.0366175 L25.2339725,60.0366175 L25.2339725,60.5285975 L31.1192028,60.5285975 C31.1192028,60.7736797 30.7119173,62.4102846 30.3028176,63.1464391 C30.2211791,62.9803278 27.6042109,62.0816928 26.1319962,62 C24.5790501,62.0816928 23.3526581,62.5718573 22.7802813,63.7182977 C21.962989,65.8441593 23.2710196,67.9727441 26.2145418,67.9727441 C26.7052801,67.9727441 29.0755185,67.7276619 30.8751943,65.2723007 C31.3650255,65.5182907 34.1452707,66.9089056 35.8624009,67.8093559 C34.2260021,69.7727371 31.7741252,71 28.99388,71 C26.6064951,71.0067392 24.3149397,70.0607072 22.6267968,68.3714153 C20.938654,66.6821235 19.9932654,64.3890085 20,62 C19.9935084,59.611063 20.938975,57.3180894 22.627065,55.6288505 C24.3151551,53.9396116 26.6065691,52.9935015 28.99388,53 C31.3811168,52.9937445 33.6723895,53.9399327 35.3604267,55.6291188 C37.0484639,57.3183049 37.9940086,59.6111371 37.9877238,62 C38.0684552,63.4732154 37.7428082,64.7004421 37.25207,65.8432516 Z" id="支付宝"></path>
                </g>
            </g>
        </g>
    </g>
</svg>