<?xml version="1.0" encoding="UTF-8"?>
<svg width="24px" height="24px" viewBox="0 0 24 24" version="1.1" xmlns="http://www.w3.org/2000/svg" xmlns:xlink="http://www.w3.org/1999/xlink">
    <!-- Generator: Sketch 60 (88103) - https://sketch.com -->
    <title>wechat</title>
    <desc>Created with Sketch.</desc>
    <defs>
        <linearGradient x1="100%" y1="100%" x2="0%" y2="0%" id="linearGradient-1">
            <stop stop-color="#2FAD66" offset="0%"></stop>
            <stop stop-color="#9DE686" offset="100%"></stop>
        </linearGradient>
    </defs>
    <g id="商户收银台" stroke="none" stroke-width="1" fill="none" fill-rule="evenodd">
        <g id="收银台第一个界面优化_02" transform="translate(-859.000000, -330.000000)" fill="url(#linearGradient-1)">
            <g id="内容" transform="translate(430.000000, 124.000000)">
                <g id="支付方式" transform="translate(30.000000, 172.000000)">
                    <g transform="translate(0.000000, 24.000000)" id="微信">
                        <g transform="translate(360.000000, 0.000000)">
                            <path d="M52.4957718,22 C52.1091607,22.0141518 51.8063317,22.1978631 51.8,22.4219799 C51.8390078,22.6320977 52.1396509,22.7933493 52.5047417,22.8 C53.0326856,22.8 53.4,22.6109027 53.4,22.4219799 C53.4,22.1890973 53.0217935,22 52.5047417,22 L52.4957718,22 Z M51.055756,19.598226 C51.2542847,19.6130683 51.4489978,19.5342401 51.5909827,19.3818161 C51.7329363,19.2292552 51.8084323,19.0178041 51.7983932,18.8004365 C51.8120913,18.5821456 51.73769,18.3681637 51.594892,18.2147821 C51.4521878,18.0614347 51.2551291,17.9839403 51.055756,18.0027838 C50.617667,18.0027838 50.2,18.2989454 50.2,18.8004365 C50.2,19.3019277 50.617667,19.598226 51.055756,19.598226 Z M51.0000732,10 C44.3726726,10 39,15.3726726 39,22.0000732 C39,28.6273274 44.3726726,34 51.0000732,34 C57.6273274,34 63,28.6273274 63,22.0000732 C63,15.3725554 57.6274446,10 51.0000732,10 Z M48.6061681,25.293922 C47.9439732,25.2885178 47.2865298,25.1797697 46.6563852,24.9713911 L44.6591467,26 L45.2302374,24.2671849 C43.8323327,23.2599211 43,21.9818738 43,20.4389604 C43,17.6985192 45.5209916,15.6 48.5938319,15.6 C51.3112568,15.6 53.7340318,17.2523861 54.2,19.5893542 C54.0270585,19.5516154 53.8510182,19.5312062 53.674181,19.5283985 C50.9957123,19.5283985 48.9283823,21.5843181 48.9283823,24.0609197 C48.9310384,24.469465 48.9840423,24.8758666 49.086066,25.2707051 C48.9225979,25.2874309 48.7582149,25.293922 48.5938319,25.2905104 L48.605932,25.293922 L48.6061681,25.293922 Z M57.0262392,26.9606234 L57.4254829,28.4 L55.9097564,27.5406542 C55.3309412,27.6597055 54.7715336,27.8414297 54.1931072,27.8414297 C51.5195112,27.8414297 49.4,26.0014986 49.4,23.7207598 C49.4,21.4396913 51.5158929,19.6 54.1931072,19.6 C56.7190091,19.6033869 59,21.4430782 59,23.7240568 C59,25.0033794 58.1426024,26.1438687 57.0243553,26.9642501 L57.0262392,26.9606234 Z M47.0749482,18.0011326 C46.6474833,18.0011326 46.2,18.297448 46.2,18.7991995 C46.2,19.3009853 46.6474833,19.5995589 47.0749482,19.5995589 C47.2670755,19.6067786 47.4535269,19.5251037 47.5904817,19.3737981 C47.7274365,19.2225267 47.8031461,19.014798 47.7995757,18.7991995 C47.8063503,18.5826772 47.7317392,18.3728613 47.59393,18.2211451 C47.4560292,18.069292 47.2675638,17.9893963 47.074582,18.0011326 L47.0749482,18.0011326 Z M55.7118322,22 C55.3135501,22.0063013 54.9972013,22.193835 55.0000187,22.4220108 C55.0303629,22.6345098 55.3391352,22.7986482 55.7118322,22.8 C56.2206022,22.8 56.6,22.610831 56.6,22.4220108 C56.6,22.1889074 56.2179371,22 55.7118322,22 Z" id="wechat"></path>
                        </g>
                    </g>
                </g>
            </g>
        </g>
    </g>
</svg>