<?xml version="1.0" encoding="UTF-8"?>
<svg width="24px" height="22px" viewBox="0 0 24 22" version="1.1" xmlns="http://www.w3.org/2000/svg" xmlns:xlink="http://www.w3.org/1999/xlink">
    <!-- Generator: Sketch 60 (88103) - https://sketch.com -->
    <title>编组 3备份</title>
    <desc>Created with Sketch.</desc>
    <g id="商户收银台" stroke="none" stroke-width="1" fill="none" fill-rule="evenodd">
        <g id="1备份" transform="translate(-851.000000, -282.000000)">
            <g id="内容" transform="translate(430.000000, 124.000000)">
                <g id="编组-3备份" transform="translate(421.000000, 157.000000)">
                    <g id="编组-2" transform="translate(0.000000, 2.181818)">
                        <circle id="椭圆形" fill="#B8C2D2" cx="7" cy="7" r="7"></circle>
                        <path d="M7.38844787,8.22437273 C5.68137806,10.3921055 3.64911177,9.71469621 3.32393454,9.57919127 C2.51102033,9.36238721 2.24004892,7.87212146 3.24263542,7.41149701 C4.9497822,6.86951572 6.44010569,7.49269991 7.52387585,8.03462348 C7.44257674,8.14303513 7.38844787,8.22437273 7.38844787,8.22437273 Z M9.14964655,7.60116929 C9.9084319,6.24629302 10.1793648,4.94562259 10.1793648,4.94562259 L7.65941928,4.94562259 L7.65941928,4.02441218 L10.6399508,4.02441218 L10.6399508,3.61789735 L7.65941928,3.61789735 L7.65941928,2.18181818 L6.30450454,2.18181818 L6.30450454,3.61789735 L3.59479049,3.61789735 L3.59479049,4.02441218 L6.30450454,4.02441218 L6.30450454,4.97275437 L3.97419279,4.97275437 L3.97419279,5.37917299 L8.66194805,5.37917299 C8.66194805,5.4605106 8.66194805,5.4605106 8.62128887,5.73146276 C8.58062969,6.00241491 8.22843613,6.67984342 7.95744549,7.22182472 C4.48898459,5.86696771 3.48639808,6.67988191 3.21544591,6.81532913 C1.16439904,8.44804633 2.52025667,10.3232754 4.21599272,10.574735 C5.91176726,10.8261754 7.44251901,9.93144255 8.52640462,8.65788464 C8.74315096,8.73926073 9.12251478,8.94246043 10.2063811,9.47079886 C11.2902475,9.99917578 13.0786742,10.8527107 13.0786742,10.8527107 L13.0786742,8.8205791 C12.5368083,8.76631554 10.5587479,8.08890627 9.14964655,7.60116929 Z" id="形状" fill="#FFFFFF" fill-rule="nonzero"></path>
                    </g>
                    <g id="编组-4" transform="translate(10.000000, 8.000000)" fill-rule="nonzero">
                        <path d="M7,0 C3.15,0 0,3.15 0,7 C0,10.85 3.15,14 7,14 C10.85,14 14,10.85 14,7 C14,3.15 10.85,0 7,0 Z" id="Path" fill="#C3CDDC"></path>
                        <path d="M10.6363636,6.25974026 L10.6363636,9.2987013 C10.6363636,9.2987013 10.6363636,9.76623377 10.0909091,9.84415584 L3.46753247,9.84415584 C3.46753247,9.84415584 3.07792208,9.84415584 3,9.2987013 L3,6.25974026 L10.6363636,6.25974026 Z M9.23376623,8.36363636 L8.68831169,8.36363636 L8.68831169,8.90909091 L9.23376623,8.90909091 L9.23376623,8.36363636 Z M8.53246753,8.36363636 L7.98701299,8.36363636 L7.98701299,8.90909091 L8.53246753,8.90909091 L8.53246753,8.36363636 Z M9.93506494,8.36363636 L9.38961039,8.36363636 L9.38961039,8.90909091 L9.93506494,8.90909091 L9.93506494,8.36363636 Z M10.0909091,4 C10.5944056,4 10.6331361,4.33197572 10.6361154,4.3830489 L10.6363636,5.32467532 L3,5.32467532 L3,4.38961039 C3.07083825,4.03541913 3.39927015,4.00321992 3.4583996,4.00029272 L10.0909091,4 Z" id="形状结合" fill="#FFFFFF"></path>
                    </g>
                    <path d="M16.4637805,5.97556054 L15.2673271,6.69585798 C15.2673271,6.69585798 15.2173394,6.7750907 15.2429428,6.90601536 C15.3039034,7.01617849 15.3595808,7.03185556 15.379901,7.06829413 C15.4351719,7.0839712 18.0772043,8.3805066 18.0772043,8.3805066 C18.0772043,8.3805066 18.3047906,8.53727722 18.5161207,8.41016591 C18.7274507,8.28305459 18.7160714,8.09365873 18.7160714,8.09365873 L18.9196798,4.98663451 C18.9196798,4.98663451 18.8940764,4.85528616 18.8331158,4.74512302 C18.7164778,4.61970652 18.6461699,4.66207696 18.6461699,4.66207696 L17.5200245,5.34000397 L16.3211327,3.17487458 C16.3211327,3.17487458 15.5977335,1.36014872 16.1955538,1 C16.1955538,1 14.3155289,2.1804404 15.2705783,3.90534094" id="Shape" fill="#C3CDDC" fill-rule="nonzero" transform="translate(16.959840, 4.729939) rotate(139.000000) translate(-16.959840, -4.729939) "></path>
                    <path d="M7.47581318,18.4631318 L8.67226656,17.7428343 C8.67226656,17.7428343 8.74298085,17.7004639 8.716971,17.5691155 C8.6560104,17.4589524 8.5247419,17.3911597 8.5247419,17.3911597 C8.46906456,17.3759063 5.82743855,16.0793709 5.82743855,16.0793709 C5.82743855,16.0793709 5.59985231,15.9226003 5.38852223,16.0497116 C5.21254929,16.1556377 5.2235222,16.3450336 5.2235222,16.3450336 L5,19.4156192 C5,19.4156192 5.04592365,19.5838299 5.10688425,19.693993 C5.2027956,19.7829709 5.27350989,19.7406005 5.27350989,19.7406005 L6.39924898,19.0626735 L7.59814078,21.2273791 C7.59814078,21.2273791 8.32194631,23.0425287 7.72412602,23.4026774 C7.72412602,23.4026774 9.60415093,22.2218133 8.64910153,20.4973365" id="Shape" fill="#C3CDDC" fill-rule="nonzero" transform="translate(6.959840, 19.701339) rotate(149.000000) translate(-6.959840, -19.701339) "></path>
                </g>
            </g>
        </g>
    </g>
</svg>