<?xml version="1.0" encoding="UTF-8"?>
<svg width="12px" height="12px" viewBox="0 0 12 12" version="1.1" xmlns="http://www.w3.org/2000/svg" xmlns:xlink="http://www.w3.org/1999/xlink">
    <!-- Generator: Sketch 63.1 (92452) - https://sketch.com -->
    <title>编组</title>
    <desc>Created with Sketch.</desc>
    <g id="FlashEx_收银台_纯色" stroke="none" stroke-width="1" fill="none" fill-rule="evenodd">
        <g id="05_2" transform="translate(-968.000000, -378.000000)" fill="#4398FF" fill-rule="nonzero">
            <g id="右边" transform="translate(420.000000, 180.000000)">
                <g id="内容" transform="translate(40.000000, 40.000000)">
                    <g id="编组" transform="translate(508.000000, 158.000000)">
                        <path d="M10.2125,0.003125 L3.553125,0.003125 C2.56875,0.003125 1.775,0.7953125 1.775,1.78125 L1.775,8.440625 C1.775,9.425 2.5671875,10.21875 3.553125,10.21875 L10.2125,10.21875 C11.196875,10.21875 11.990625,9.4265625 11.990625,8.440625 L11.990625,1.78125 C11.990625,0.796875 11.1984375,0.003125 10.2125,0.003125 Z M11.03125,8.39375 C11.03125,8.8578125 10.6515625,9.259375 10.165625,9.259375 L3.6,9.259375 C3.1359375,9.259375 2.734375,8.8796875 2.734375,8.39375 L2.734375,1.828125 C2.734375,1.3640625 3.1140625,0.9625 3.6,0.9625 L10.165625,0.9625 C10.6296875,0.9625 11.03125,1.3421875 11.03125,1.828125 L11.03125,8.39375 L11.03125,8.39375 Z" id="形状"></path>
                        <path d="M0.446875,2.3796875 C0.209375,2.3796875 0.025,2.5640625 0,2.778125 L0,10.1765625 C0.05625,11.1953125 0.890625,11.99375 1.9234375,11.99375 L9.1828125,11.99375 C9.41875,11.99375 9.6109375,11.8015625 9.6328125,11.565625 C9.6328125,11.309375 9.41875,11.115625 9.1828125,11.115625 L1.946875,11.1171875 C1.36875,11.1171875 0.896875,10.6453125 0.896875,10.0671875 L0.896875,2.8296875 C0.896875,2.5734375 0.6828125,2.3796875 0.446875,2.3796875 Z" id="路径"></path>
                    </g>
                </g>
            </g>
        </g>
    </g>
</svg>