<?xml version="1.0" encoding="UTF-8"?>
<svg width="390px" height="31px" viewBox="0 0 390 31" version="1.1" xmlns="http://www.w3.org/2000/svg" xmlns:xlink="http://www.w3.org/1999/xlink">
    <!-- Generator: Sketch 63.1 (92452) - https://sketch.com -->
    <title>Line</title>
    <desc>Created with Sketch.</desc>
    <defs>
        <linearGradient x1="0%" y1="49.689787%" x2="101.999998%" y2="50.3164172%" id="linearGradient-1">
            <stop stop-color="#09B66D" offset="0%"></stop>
            <stop stop-color="#22CCE2" offset="100%"></stop>
        </linearGradient>
    </defs>
    <g id="客服管理后台" stroke="none" stroke-width="1" fill="none" fill-rule="evenodd">
        <g id="首页" transform="translate(-281.000000, -860.000000)" fill="url(#linearGradient-1)">
            <g id="统计数据" transform="translate(260.000000, 648.000000)">
                <g id="1" transform="translate(20.000000, 81.000000)">
                    <g id="兑入">
                        <g id="图像" transform="translate(1.000000, 43.000000)">
                            <path d="M11.8787879,105.452055 L11.8787879,118.876712 L0,118.876712 L0,105.452055 L11.8787879,105.452055 Z M35.6363636,97.3972603 L35.6363636,118.876712 L23.7575758,118.876712 L23.7575758,97.3972603 L35.6363636,97.3972603 Z M59.3939394,104.109589 L59.3939394,118.876712 L47.5151515,118.876712 L47.5151515,104.109589 L59.3939394,104.109589 Z M83.1515152,109.479452 L83.1515152,118.876712 L71.2727273,118.876712 L71.2727273,109.479452 L83.1515152,109.479452 Z M106.909091,110.821918 L106.909091,118.876712 L95.030303,118.876712 L95.030303,110.821918 L106.909091,110.821918 Z M130.666667,113.506849 L130.666667,118.876712 L118.787879,118.876712 L118.787879,113.506849 L130.666667,113.506849 Z M154.424242,101.424658 L154.424242,118.876712 L142.545455,118.876712 L142.545455,101.424658 L154.424242,101.424658 Z M178.181818,106.794521 L178.181818,118.876712 L166.30303,118.876712 L166.30303,106.794521 L178.181818,106.794521 Z M201.939394,110.821918 L201.939394,118.876712 L190.060606,118.876712 L190.060606,110.821918 L201.939394,110.821918 Z M225.69697,109.479452 L225.69697,118.876712 L213.818182,118.876712 L213.818182,109.479452 L225.69697,109.479452 Z M249.454545,104.109589 L249.454545,118.876712 L237.575758,118.876712 L237.575758,104.109589 L249.454545,104.109589 Z M273.212121,108.136986 L273.212121,118.876712 L261.333333,118.876712 L261.333333,108.136986 L273.212121,108.136986 Z M296.969697,93.369863 L296.969697,118.876712 L285.090909,118.876712 L285.090909,93.369863 L296.969697,93.369863 Z M320.727273,105.452055 L320.727273,118.876712 L308.848485,118.876712 L308.848485,105.452055 L320.727273,105.452055 Z M344.484848,88 L344.484848,118.876712 L332.606061,118.876712 L332.606061,88 L344.484848,88 Z M368.242424,112.164384 L368.242424,118.876712 L356.363636,118.876712 L356.363636,112.164384 L368.242424,112.164384 Z M392,105.452055 L392,118.876712 L380.121212,118.876712 L380.121212,105.452055 L392,105.452055 Z" id="Line"></path>
                        </g>
                    </g>
                </g>
            </g>
        </g>
    </g>
</svg>