<?xml version="1.0" encoding="UTF-8"?>
<svg width="368px" height="120px" viewBox="0 0 368 120" version="1.1" xmlns="http://www.w3.org/2000/svg" xmlns:xlink="http://www.w3.org/1999/xlink">
    <title>编组 2备份</title>
    <g id="ICON" stroke="none" stroke-width="1" fill="none" fill-rule="evenodd">
        <g id="ICON备份" transform="translate(-484.000000, -664.000000)">
            <g id="编组-2备份" transform="translate(484.000000, 664.000000)">
                <g id="编组">
                    <path d="M89.0924286,30.9075714 C73.0251239,14.8402668 46.9748761,14.8402668 30.9075714,30.9075714 C14.8402668,46.9748761 14.8402668,73.0251239 30.9075714,89.0924286 L17.5735714,102.426429 C-5.85785714,78.995 -5.85785714,41.005 17.5735714,17.5735714 C41.005,-5.85785714 78.995,-5.85785714 102.426429,17.5735714 L89.0924286,30.9075714 Z" id="椭圆_6_拷贝" fill="" opacity="0.8"></path>
                    <path d="M89.0924286,30.9075714 C105.159733,46.9748761 105.159733,73.0251239 89.0924286,89.0924286 C73.0251239,105.159733 46.9748761,105.159733 30.9075714,89.0924286 L17.5735714,102.426429 C41.005,125.857857 78.995,125.857857 102.426429,102.426429 C125.857857,78.995 125.857857,41.005 102.426429,17.5735714 L89.0924286,30.9075714 Z" id="椭圆_6_拷贝_2" fill="" opacity="0.8"></path>
                    <circle id="椭圆_5" fill="#FFFFFF" fill-rule="nonzero" cx="95.9375714" cy="24.2232857" r="9.42857143"></circle>
                    <circle id="椭圆_5_拷贝" fill="#FFFFFF" fill-rule="nonzero" cx="24.0804286" cy="95.759" r="9.42857143"></circle>
                </g>
                <path d="M157.435099,88.1439114 L157.435099,61.3198032 L186.598013,61.3198032 L186.598013,88.1439114 L194.033113,88.1439114 L194.033113,31 L186.598013,31 L186.598013,55.0418204 L157.435099,55.0418204 L157.435099,31 L150,31 L150,88.1439114 L157.435099,88.1439114 Z M222.329801,89 C225.987196,89 229.259603,88.0844608 232.14702,86.2533825 C235.034437,84.4223042 237.284216,81.8540385 238.896358,78.5485855 C240.508499,75.2431324 241.31457,71.4739647 241.31457,67.2410824 C241.31457,62.9606396 240.508499,59.1676917 238.896358,55.8622386 C237.284216,52.5567856 235.034437,49.9766298 232.14702,48.1217712 C229.259603,46.2669127 225.987196,45.3394834 222.329801,45.3394834 C218.624283,45.3394834 215.327815,46.2669127 212.440397,48.1217712 C209.55298,49.9766298 207.303201,52.5567856 205.69106,55.8622386 C204.078918,59.1676917 203.272848,62.9606396 203.272848,67.2410824 C203.272848,71.4739647 204.078918,75.2431324 205.69106,78.5485855 C207.303201,81.8540385 209.55298,84.4223042 212.440397,86.2533825 C215.327815,88.0844608 218.624283,89 222.329801,89 Z M222.329801,83.4354244 C219.971744,83.4354244 217.878366,82.7576876 216.049669,81.402214 C214.220971,80.0467405 212.801325,78.1443214 211.790728,75.6949569 C210.780132,73.2455925 210.274834,70.4276343 210.274834,67.2410824 C210.274834,64.0069701 210.780132,61.1652317 211.790728,58.7158672 C212.801325,56.2665027 214.220971,54.3640836 216.049669,53.0086101 C217.878366,51.6531365 219.971744,50.9753998 222.329801,50.9753998 C224.687859,50.9753998 226.781236,51.6531365 228.609934,53.0086101 C230.438631,54.3640836 231.858278,56.2665027 232.868874,58.7158672 C233.87947,61.1652317 234.384768,64.0069701 234.384768,67.2410824 C234.384768,70.4276343 233.87947,73.2455925 232.868874,75.6949569 C231.858278,78.1443214 230.438631,80.0467405 228.609934,81.402214 C226.781236,82.7576876 224.687859,83.4354244 222.329801,83.4354244 Z M264.341722,89 C267.325386,89 269.984216,88.4768348 272.318212,87.4305043 C274.652208,86.3841738 276.480905,84.897909 277.804305,82.9717097 C279.127704,81.0455105 279.789404,78.8220582 279.789404,76.301353 C279.789404,72.6391964 278.646468,69.7498975 276.360596,67.6334563 C274.074724,65.5170152 270.525607,64.0783108 265.713245,63.3173432 C262.200221,62.7466175 259.757947,61.9856499 258.386424,61.0344403 C257.014901,60.0832308 256.329139,58.703977 256.329139,56.896679 C256.329139,54.9466995 257.026932,53.4485445 258.422517,52.402214 C259.818102,51.3558836 261.743046,50.8327183 264.197351,50.8327183 C266.796026,50.8327183 268.805188,51.3202132 270.224834,52.295203 C271.644481,53.2701927 272.643046,54.6851169 273.22053,56.5399754 L273.22053,56.5399754 L278.634437,54.1143911 C277.912583,51.403444 276.264349,49.2632226 273.689735,47.6937269 C271.115121,46.1242312 267.878808,45.3394834 263.980795,45.3394834 C261.189625,45.3394834 258.687196,45.8388684 256.47351,46.8376384 C254.259823,47.8364084 252.539404,49.2275523 251.312252,51.0110701 C250.085099,52.7945879 249.471523,54.8277983 249.471523,57.1107011 C249.471523,60.3448134 250.578366,62.9368594 252.792053,64.8868389 C255.00574,66.8368184 258.398455,68.1922919 262.970199,68.9532595 C266.723841,69.5715457 269.322517,70.4395244 270.766225,71.5571956 C272.209934,72.6748667 272.931788,74.3751538 272.931788,76.6580566 C272.931788,78.798278 272.137748,80.4866749 270.549669,81.7232472 C268.961589,82.9598196 266.796026,83.5781058 264.05298,83.5781058 C261.117439,83.5781058 258.771413,82.9835998 257.014901,81.7945879 C255.258389,80.6055761 253.995143,78.8220582 253.225166,76.4440344 L253.225166,76.4440344 L247.811258,78.8696187 C248.773731,82.1512915 250.674614,84.6601066 253.513907,86.396064 C256.353201,88.1320213 259.962472,89 264.341722,89 Z M306.498013,89 C314.630905,89 319.948565,85.6945469 322.450993,79.0836408 L322.450993,79.0836408 L316.748344,76.3726937 C315.737748,78.798278 314.438411,80.5817958 312.850331,81.7232472 C311.262252,82.8646986 309.120751,83.4354244 306.425828,83.4354244 C302.575938,83.4354244 299.508057,82.1512915 297.222185,79.5830258 C294.936313,77.0147601 293.69713,73.3763838 293.504636,68.6678967 L293.504636,68.6678967 L323.245033,68.6678967 C323.293157,68.3825338 323.317219,67.8118081 323.317219,66.9557196 C323.317219,62.5801558 322.595364,58.7634276 321.151656,55.5055351 C319.707947,52.2476425 317.61457,49.7388274 314.871523,47.9790898 C312.128477,46.2193522 308.880132,45.3394834 305.12649,45.3394834 C301.565342,45.3394834 298.377152,46.2550226 295.561921,48.0861009 C292.746689,49.9171792 290.533002,52.497335 288.920861,55.8265683 C287.30872,59.1558016 286.502649,62.9606396 286.502649,67.2410824 C286.502649,71.5690857 287.320751,75.3739237 288.956954,78.6555966 C290.593157,81.9372694 292.915121,84.4817548 295.922848,86.2890529 C298.930574,88.096351 302.455629,89 306.498013,89 Z M316.315232,63.4600246 L293.721192,63.4600246 C294.202428,59.5600656 295.453642,56.504305 297.474834,54.2927429 C299.496026,52.0811808 302.046578,50.9753998 305.12649,50.9753998 C308.398896,50.9753998 310.997572,52.0455105 312.922517,54.1857319 C314.847461,56.3259533 315.978366,59.4173842 316.315232,63.4600246 L316.315232,63.4600246 Z M339.270199,88.1439114 L339.270199,64.9581796 C339.270199,60.8204182 340.377042,57.503075 342.590728,55.0061501 C344.804415,52.5092251 347.739956,51.2607626 351.397351,51.2607626 C354.669757,51.2607626 357.112031,52.0930709 358.724172,53.7576876 C360.336313,55.4223042 361.142384,57.9667897 361.142384,61.3911439 L361.142384,61.3911439 L361.142384,88.1439114 L368,88.1439114 L368,60.3210332 C368,55.6125461 366.736755,51.9384994 364.210265,49.298893 C361.683775,46.6592866 358.182781,45.3394834 353.707285,45.3394834 C346.633113,45.3394834 341.580132,48.1455515 338.548344,53.7576876 C338.500221,50.2382124 338.35585,47.7175072 338.115232,46.195572 L338.115232,46.195572 L332.051656,46.195572 C332.24415,48.8589586 332.340397,52.1406314 332.340397,56.0405904 L332.340397,56.0405904 L332.340397,88.1439114 L339.270199,88.1439114 Z" id="Hosen" fill="#FFFFFF" fill-rule="nonzero" opacity="0.900000036"></path>
            </g>
        </g>
    </g>
</svg>