<?xml version="1.0" encoding="UTF-8"?>
<svg width="247px" height="64px" viewBox="0 0 247 64" version="1.1" xmlns="http://www.w3.org/2000/svg" xmlns:xlink="http://www.w3.org/1999/xlink">
    <!-- Generator: Sketch 63.1 (92452) - https://sketch.com -->
    <title>HOMO</title>
    <desc>Created with Sketch.</desc>
    <g id="修改" stroke="none" stroke-width="1" fill="none" fill-rule="evenodd">
        <g id="闪屏" transform="translate(-252.000000, -1092.000000)" fill="#FFFFFF">
            <g id="编组">
                <g id="LOGO" transform="translate(81.000000, 1092.000000)">
                    <g id="HOMO" transform="translate(171.000000, 0.000000)">
                        <g id="LOGO">
                            <path d="M31.8373692,0 C49.4203255,0 63.6747384,14.2544129 63.6747384,31.8373692 C63.6747384,49.4203255 49.4203255,63.6747384 31.8373692,63.6747384 C14.2536107,63.6747384 0,49.4203255 0,31.8373692 C0,14.2544129 14.2536107,0 31.8373692,0 Z M31.8373692,5.96950673 C17.5507785,5.96950673 5.96950673,17.5509801 5.96950673,31.8373692 C5.96950673,46.1237583 17.5507785,57.7052317 31.8373692,57.7052317 C46.123458,57.7052317 57.7052317,46.123458 57.7052317,31.8373692 C57.7052317,17.5512804 46.123458,5.96950673 31.8373692,5.96950673 Z" id="外圈" fill-rule="nonzero"></path>
                            <path d="M36.1910585,22.6830177 L28.8800431,37.3681625 C28.4334199,38.2652503 28.4252307,39.3199775 28.8586254,40.2233963 L28.8586254,40.2233963 L28.9165793,40.3455825 C30.0788078,42.7709486 33.5069092,42.7969052 34.7050439,40.3898988 L34.7050439,40.3898988 L42.0154294,25.7053871 C42.4620527,24.8082992 42.4702418,23.7535721 42.0368472,22.8495202 L42.0368472,22.8495202 L41.9788932,22.727967 C41.3930545,21.5067373 40.2333458,20.8939066 39.0730071,20.8932735 L39.0730071,20.8932735 C37.9296767,20.8932735 36.7857163,21.4883777 36.1910585,22.6830177 M21.5803666,22.6830177 L14.2699811,37.3681625 C13.8233578,38.2652503 13.8145387,39.3199775 14.2479334,40.2233963 L14.2479334,40.2233963 L14.3071472,40.3455825 C15.4687457,42.7709486 18.8962173,42.7969052 20.094352,40.3898988 L20.094352,40.3898988 L27.4053674,25.7053871 C27.8519907,24.8082992 27.8601798,23.7535721 27.4267851,22.8495202 L27.4267851,22.8495202 L27.3682013,22.727967 C26.7829925,21.5067373 25.6232837,20.8939066 24.4629451,20.8932735 L24.4629451,20.8932735 C23.3189847,20.8932735 22.1756543,21.4883777 21.5803666,22.6830177 M43.547199,37.574818 L43.4460221,37.7854831 C43.0241333,38.6639879 43.0266786,39.6846131 43.4542944,40.5612314 L43.4542944,40.5612314 C44.6416918,42.9986579 48.156159,42.9885962 49.3301934,40.5448812 L49.3301934,40.5448812 L49.4313704,40.3342162 C49.8532591,39.4557113 49.8507138,38.4350861 49.4237344,37.5584679 L49.4237344,37.5584679 C48.8313083,36.3428989 47.6604556,35.7360577 46.4896029,35.7360577 L46.4896029,35.7360577 C45.3123868,35.7360577 44.1358071,36.3491874 43.547199,37.574818" id="形状"></path>
                        </g>
                        <path d="M89.1322314,50.4428571 L89.1322314,33.0042857 L108.266529,33.0042857 L108.266529,46.71 C108.266529,49.2728571 110.051653,50.4428571 111.613636,50.4428571 L113.342975,50.4428571 L113.342975,15.12 C113.342975,13.6157143 112.059917,12.5571429 110.721074,12.5571429 L108.266529,12.5571429 L108.266529,28.3242857 L89.1322314,28.3242857 L89.1322314,15.12 C89.1322314,13.4485714 87.9049587,12.5571429 86.7334711,12.5571429 L84,12.5571429 L84,46.71 C84,49.3285714 85.7293388,50.4428571 87.2355372,50.4428571 L89.1322314,50.4428571 Z M137.77686,51 C148.933884,51 155.237603,42.5871429 155.237603,30.9985714 C155.237603,19.8 148.599174,12 138.390496,12 C127.233471,12 120.929752,20.3014286 120.929752,31.9457143 C120.929752,43.9242857 128.628099,51 137.77686,51 Z M138.390496,46.32 C130.190083,46.32 126.006198,40.8042857 126.006198,30.9985714 C126.006198,21.36 130.580579,16.68 137.77686,16.68 C146.311983,16.68 150.161157,21.8057143 150.161157,31.9457143 C150.161157,40.7485714 145.754132,46.32 138.390496,46.32 Z M181.121901,35.9014286 L176.10124,21.0257143 C174.706612,16.9585714 172.586777,12.5571429 167.677686,12.5571429 L165.780992,12.5571429 C164.330579,20.6357143 162.266529,35.9014286 162.266529,46.3757143 C162.266529,49.05 163.940083,50.4428571 165.780992,50.4428571 L167.28719,50.4428571 C167.39876,42.3642857 168.123967,28.9371429 169.68595,18.5185714 C170.745868,20.4685714 172.084711,23.5328571 172.921488,26.1514286 L177.663223,40.47 C180.515702,49.1261429 182.343301,50.4017369 183.835565,50.4418522 L185.082645,50.4428571 C185.919421,48.8271429 187.035124,46.1528571 187.816116,43.8685714 L193.729339,26.8757143 C195.179752,22.7528571 196.183884,20.0785714 197.076446,18.4628571 C198.247934,25.26 199.140496,40.4142857 199.140496,46.3757143 C199.140496,49.2728571 200.200413,50.4428571 202.487603,50.4428571 L204.384298,50.4428571 C204.161157,41.5842857 203.380165,29.3271429 202.320248,19.7442857 C201.818182,15.0642857 200.367769,12.5571429 196.964876,12.5571429 L195.626033,12.5571429 C194.566116,13.8942857 192.278926,17.9614286 190.772727,22.14 L185.863636,35.79 C184.994318,38.1392857 184.125,40.7694643 183.513494,42.9080804 L183.353306,43.4774107 L183.273087,43.0996708 C182.837947,41.1409654 181.906379,38.251875 181.121901,35.9014286 Z M228.539256,51 C239.696281,51 246,42.5871429 246,30.9985714 C246,19.8 239.36157,12 229.152893,12 C217.995868,12 211.692149,20.3014286 211.692149,31.9457143 C211.692149,43.9242857 219.390496,51 228.539256,51 Z M229.152893,46.32 C220.952479,46.32 216.768595,40.8042857 216.768595,30.9985714 C216.768595,21.36 221.342975,16.68 228.539256,16.68 C237.07438,16.68 240.923554,21.8057143 240.923554,31.9457143 C240.923554,40.7485714 236.516529,46.32 229.152893,46.32 Z" stroke="#FFFFFF" fill-rule="nonzero"></path>
                    </g>
                </g>
            </g>
        </g>
    </g>
</svg>