<?xml version="1.0" encoding="UTF-8"?>
<svg width="156px" height="26px" viewBox="0 0 156 26" version="1.1" xmlns="http://www.w3.org/2000/svg" xmlns:xlink="http://www.w3.org/1999/xlink">
    <!-- Generator: Sketch 63.1 (92452) - https://sketch.com -->
    <title>Proxima logo</title>
    <desc>Created with Sketch.</desc>
    <g id="客服管理后台" stroke="none" stroke-width="1" fill="none" fill-rule="evenodd">
        <g id="登录" transform="translate(-436.000000, -280.000000)" fill="#FFFFFF">
            <g transform="translate(396.000000, 240.000000)" id="Banner">
                <g>
                    <g id="Proxima-logo" transform="translate(40.000000, 40.000000)">
                        <g id="Proxima">
                            <path d="M70.7710722,15.3026706 C71.5015866,15.3246245 72.2316005,15.2447296 72.9401346,15.0652819 C73.4972332,14.8916655 74.010584,14.6002235 74.4454403,14.2106825 C74.9853495,13.725284 75.4035749,13.1194292 75.6662787,12.4421365 C75.9601207,11.7144455 76.109098,10.9362567 76.1048323,10.1513353 C76.1120507,9.2155396 75.8837766,8.29299749 75.4410755,7.46884273 C74.8402702,6.3768546 74.0184761,5.65677547 72.975693,5.30860534 C72.3593474,5.10313221 71.3321047,5.00026377 69.893965,5 L62,5 L62,20.8338279 L65.3661953,20.8338279 L65.3661953,15.3026706 L70.7710722,15.3026706 L70.7710722,15.3026706 Z M65.3661953,7.82492582 L70.012493,7.82492582 C70.4456904,7.80304187 70.8792881,7.85932787 71.2925954,7.99109792 C72.0353709,8.29179031 72.4067586,8.97230465 72.4067586,10.0326409 C72.4067586,11.0141114 72.1618007,11.7025387 71.671885,12.0979228 C71.3400066,12.3511375 70.7631703,12.4777448 69.9413762,12.4777448 L65.3661953,12.4777448 L65.3661953,7.82492582 Z M78.7598596,20.8338279 L81.93641,20.8338279 L81.93641,11.7418398 L82.8372228,11.7418398 C83.6432133,11.7418398 84.1884421,11.892186 84.4729093,12.1928783 C84.7573765,12.4935707 84.8996101,13.0553907 84.8996101,13.8783383 L84.8996101,14.495549 L87.9339269,14.495549 L87.9339269,13.379822 C87.9565888,12.6927545 87.8849345,12.0058247 87.7209716,11.3382789 C87.5908525,10.8824779 87.3372509,10.4716541 86.988271,10.1513353 C86.6135044,9.82029089 86.1623967,9.58779217 85.6755734,9.47477745 C84.941305,9.31998466 84.1913972,9.25225879 83.4413206,9.27299703 L78.7594645,9.27299703 L78.7594645,20.8338279 L78.7598596,20.8338279 Z M91.134183,10.9347181 C90.1698919,12.0111441 89.687878,13.3563469 89.6881413,14.9703264 C89.6881413,16.8852621 90.1938609,18.3412463 91.2052998,19.3382789 C92.2957574,20.446093 93.805014,21 95.7330695,21 C97.5977784,21 99.0675256,20.5093966 100.142311,19.5281899 C101.311524,18.4520277 101.896262,17.0118694 101.896526,15.2077151 C101.896526,13.4985163 101.430315,12.0820969 100.497895,10.958457 C99.4861929,9.72403561 97.9137214,9.10682493 95.7804807,9.10682493 C93.7574711,9.12265084 92.2087052,9.73194857 91.134183,10.9347181 L91.134183,10.9347181 L91.134183,10.9347181 Z M98.6488584,15.041543 C98.6488584,17.3998681 97.7085362,18.5788988 95.8278919,18.5786351 C94.7374343,18.5786351 93.9314439,18.1513353 93.4099207,17.2967359 C93.093846,16.7903066 92.9358086,16.0544016 92.9358086,15.0890208 C92.9358086,12.7151335 93.8919345,11.5281899 95.8041863,11.5281899 C97.7006343,11.5601055 98.6488584,12.7312232 98.6488584,15.041543 L98.6488584,15.041543 Z M103.366273,20.8338279 L107.088052,20.8338279 L109.529729,17.5341246 L111.876583,20.8338279 L115.622068,20.8338279 L111.307649,15.1127596 L115.622068,9.27299703 L111.876583,9.27299703 L109.529729,12.6913947 L107.088052,9.27299703 L103.532212,9.27299703 L107.704398,15.1127596 L103.366273,20.8338279 Z M117.8741,20.8338279 L121.050651,20.8338279 L121.050651,9.27299703 L117.8741,9.27299703 L117.8741,20.8338279 L117.8741,20.8338279 Z M121.050651,8.08605341 L121.050651,5 L117.8741,5 L117.8741,8.08605341 L121.050651,8.08605341 Z M124.77243,20.8338279 L127.948981,20.8338279 L127.948981,11.7418398 L131.362587,11.7418398 L131.362587,20.8338279 L134.539138,20.8338279 L134.539138,11.7418398 L136.222235,11.7418398 C136.885992,11.7418398 137.38381,11.9000989 137.715688,12.2166172 C137.882058,12.377554 137.997475,12.5839452 138.047566,12.810089 C138.106532,13.194853 138.130336,13.5842002 138.118683,13.9732938 L138.118683,20.8338279 L141.295234,20.8338279 L141.295234,13.4747774 C141.295234,12.1454006 140.947552,11.1008902 140.252187,10.3412463 C139.869032,9.94343124 139.385871,9.6564079 138.853557,9.51038576 C138.061292,9.32637063 137.248453,9.24656863 136.435586,9.27299703 L124.77243,9.27299703 L124.77243,20.8338279 L124.77243,20.8338279 Z M148.928635,13.8071217 C147.679745,13.8071217 146.786768,13.9020772 146.249704,14.0919881 C145.625099,14.3204475 145.100631,14.761619 144.768104,15.3382789 C144.391924,15.9647994 144.19891,16.6844792 144.211023,17.4154303 C144.211023,18.6973294 144.677233,19.6547972 145.609653,20.2878338 C145.97766,20.5170416 146.389472,20.6666342 146.818639,20.727003 C147.645137,20.8167104 148.476594,20.8523943 149.307727,20.8338279 L155.992706,20.8338279 L155.992706,14.3293769 C156.087528,11.8130564 155.257832,10.2225519 153.503618,9.5578635 C153.139521,9.45024375 152.766708,9.37478202 152.389455,9.33234421 C152.025969,9.29277943 151.362212,9.27299703 150.398184,9.27299703 L145.040719,9.27299703 L145.040719,11.7418398 L150.398382,11.7418398 C151.36241,11.7418398 152.006412,11.884273 152.330388,12.1691395 C152.654365,12.4540059 152.816353,13 152.816353,13.8071217 L148.928635,13.8071217 L148.928635,13.8071217 Z M152.816353,18.3649852 L149.165691,18.3649852 C148.533541,18.3649852 148.08702,18.2858556 147.826127,18.1275964 C147.560011,17.9599934 147.409209,17.6579666 147.434984,17.3442136 C147.419801,17.0483844 147.537128,16.7611814 147.75501,16.5608309 C147.99762,16.3607051 148.306397,16.2590468 148.620264,16.2759644 L152.816353,16.2759644 L152.816353,18.3649852 L152.816353,18.3649852 Z"></path>
                            <g id="Logo">
                                <path d="M37.6506265,10.7984682 L34.8084432,16.9906651 L34.1869293,15.926917 L19.6538616,24.2182556 L19.6139811,24.1498777 C14.6361062,27.0107474 8.34915601,26.3097625 4.14152643,22.4247238 C-0.0661031438,18.5396852 -1.19997126,12.3887916 1.35102828,7.28711053 C3.90202781,2.18542943 9.53498594,-0.66129622 15.2139803,0.281196381 C20.8929746,1.22368898 25.2758186,5.73264898 26.0003476,11.3779407 L20.8671604,14.3066257 C21.4968803,10.6772473 19.4896437,7.10298649 16.0398894,5.71076536 C12.5901351,4.31854423 8.62473967,5.48242333 6.50337607,8.50981748 C4.38201247,11.5372116 4.67464658,15.6147236 7.20714172,18.3159636 C9.73963685,21.0172036 13.8315647,21.6164052 17.0479572,19.7570037 L17.0128416,19.696917 L17.8829612,19.2004604 L26.0077022,14.5649879 L31.5452879,11.4055785 L30.9237739,10.3418304 L37.6506265,10.7984682 Z" id="多边形_1"></path>
                                <path d="M51.928045,12.8974052 C51.9051747,18.6786753 48.0066977,23.744482 42.3750957,25.3108154 C36.7434937,26.8771487 30.7434602,24.5644427 27.6724273,19.6436887 L32.1803715,17.0717359 C34.2111408,20.2518052 38.2432543,21.555566 41.7835243,20.1768602 C45.3237942,18.7981545 47.3717518,15.1266 46.6610777,11.4324392 C45.9504037,7.7382783 42.6819323,5.06546891 38.8766663,5.06669657 C37.4186982,5.06669657 36.1647938,5.56970445 34.9913755,6.24857059 L33.9148098,6.86274382 L20.4590329,14.5399092 L21.0805468,15.6036572 L14.2321883,14.9401454 L17.1957739,8.95502728 L17.8172879,10.0187753 L32.3503556,1.72743673 L32.3177261,1.74852335 C36.3544846,-0.571806881 41.3382894,-0.583530574 45.3861811,1.71778166 C49.4340728,4.0190939 51.9288874,8.28257123 51.928045,12.8974052 Z" id="矩形_7_拷贝_2"></path>
                            </g>
                        </g>
                    </g>
                </g>
            </g>
        </g>
    </g>
</svg>