<?xml version="1.0" encoding="UTF-8"?>
<svg width="164px" height="31px" viewBox="0 0 164 31" version="1.1" xmlns="http://www.w3.org/2000/svg" xmlns:xlink="http://www.w3.org/1999/xlink">
    <!-- Generator: Sketch 63.1 (92452) - https://sketch.com -->
    <title>AlphaPay备份 2</title>
    <desc>Created with Sketch.</desc>
    <g id="Icon" stroke="none" stroke-width="1" fill="none" fill-rule="evenodd">
        <g id="AlphaPay" transform="translate(-112.000000, -132.000000)" fill="#FFFFFF" fill-rule="nonzero">
            <g id="AlphaPay备份-2" transform="translate(112.000000, 132.000000)">
                <path d="M55.2205461,22.1536177 L56.8622142,17.6592873 L64.4138875,17.6592873 L66.0555556,22.1536177 L69.2126096,22.1536177 L62.3176036,4.22651188 L58.9584981,4.22651188 L52.0634921,22.1536177 L55.2205461,22.1536177 Z M63.5299123,15.2489201 L57.7461893,15.2489201 L60.6001662,7.39011879 L60.7011919,7.39011879 L63.5299123,15.2489201 Z M73.8597931,22.1536177 L73.8597931,3.875 L70.9805599,3.875 L70.9805599,22.1536177 L73.8597931,22.1536177 Z M80.0223626,27.125 L80.0223626,20.3709503 C81.0831328,21.7769978 82.3964673,22.5051296 83.9118532,22.5051296 C85.7808292,22.5051296 87.2709587,21.8272138 88.3317288,20.4713823 C89.3167297,19.2159827 89.8218583,17.6341793 89.8218583,15.7259719 C89.8218583,13.7173326 89.3167297,12.1104212 88.3064724,10.8550216 C87.1951894,9.49919006 85.6798034,8.8212743 83.7603146,8.8212743 C82.0428772,8.8212743 80.7295427,9.3987581 79.8203112,10.5537257 L79.8203112,9.17278618 L77.1431293,9.17278618 L77.1431293,27.125 L80.0223626,27.125 Z M83.2299295,20.1951944 C82.2954415,20.1951944 81.5377486,19.8185745 80.9315942,19.0653348 C80.2496705,18.2367711 79.9213369,17.1320194 79.9213369,15.7761879 L79.9213369,15.575324 C79.9213369,14.2697084 80.1739012,13.2402808 80.7295427,12.461933 C81.3356971,11.5580454 82.1944158,11.1312095 83.3309552,11.1312095 C84.5937769,11.1312095 85.5282649,11.5831533 86.1344192,12.487041 C86.6142914,13.2402808 86.8668558,14.3199244 86.8668558,15.7259719 C86.8668558,17.1320194 86.589035,18.2116631 86.0586499,18.9649028 C85.4524956,19.7683585 84.4927511,20.1951944 83.2299295,20.1951944 Z M95.2267349,22.1536177 L95.2267349,14.8974082 C95.2267349,13.7926566 95.4792992,12.9138769 96.0096843,12.2108531 C96.5148129,11.5078294 97.221993,11.1563175 98.1312246,11.1563175 C99.1162254,11.1563175 99.848662,11.4576134 100.353791,12.0853132 C100.78315,12.662797 101.010458,13.5164687 101.010458,14.6212203 L101.010458,22.1536177 L103.889691,22.1536177 L103.889691,14.1190605 C103.889691,12.3866091 103.510845,11.0809935 102.778408,10.2022138 C101.995459,9.27321814 100.808406,8.8212743 99.2172512,8.8212743 C98.3837889,8.8212743 97.6513524,8.97192225 97.0199416,9.29832613 C96.3127614,9.64983801 95.7066071,10.1771058 95.2267349,10.9052376 L95.2267349,3.875 L92.3475016,3.875 L92.3475016,22.1536177 L95.2267349,22.1536177 Z M110.83521,22.5051296 C111.971749,22.5051296 112.95675,22.3042657 113.790213,21.9276458 C114.522649,21.5761339 115.15406,21.0990821 115.659189,20.4462743 L115.659189,22.1536177 L118.33637,22.1536177 L118.33637,13.8679806 C118.33637,12.2861771 117.932267,11.0809935 117.124062,10.2524298 C116.21483,9.29832613 114.775213,8.8212743 112.855725,8.8212743 C111.1888,8.8212743 109.875466,9.0974622 108.915721,9.700054 C107.779182,10.3528618 107.072002,11.4073974 106.794181,12.8385529 L109.648158,13.0645248 C109.799696,12.3866091 110.178543,11.8844492 110.734184,11.5580454 C111.214057,11.2567495 111.845467,11.1312095 112.653673,11.1312095 C114.522649,11.1312095 115.457137,11.9597732 115.457137,13.6671166 L115.457137,14.1692765 L112.60316,14.2446004 C110.683671,14.2948164 109.193542,14.6965443 108.132772,15.449784 C106.970976,16.2281317 106.415334,17.3579914 106.415334,18.8142549 C106.415334,19.8938985 106.819437,20.7726782 107.627643,21.4757019 C108.410593,22.1536177 109.471363,22.5051296 110.83521,22.5051296 Z M111.491877,20.3207343 C110.860466,20.3207343 110.355338,20.1449784 109.951235,19.8436825 C109.547132,19.5423866 109.370337,19.1657667 109.370337,18.7138229 C109.370337,17.1571274 110.506876,16.3536717 112.805212,16.3034557 L115.457137,16.2281317 L115.457137,16.8809395 C115.457137,17.8852592 115.053034,18.7138229 114.295341,19.3666307 C113.537648,19.9943305 112.60316,20.3207343 111.491877,20.3207343 Z M124.574709,22.1536177 L124.574709,15.2740281 L129.045098,15.2740281 C133.439717,15.2740281 135.637027,13.4160367 135.637027,9.72516199 C135.637027,6.05939525 133.439717,4.22651188 129.095611,4.22651188 L121.619707,4.22651188 L121.619707,22.1536177 L124.574709,22.1536177 Z M128.868303,12.7632289 L124.574709,12.7632289 L124.574709,6.73731102 L128.868303,6.73731102 C130.156381,6.73731102 131.116125,6.96328294 131.72228,7.44033477 C132.328434,7.89227862 132.656768,8.64551836 132.656768,9.72516199 C132.656768,10.8048056 132.35369,11.5831533 131.747536,12.0602052 C131.141382,12.512149 130.181637,12.7632289 128.868303,12.7632289 Z M141.824852,22.5051296 C142.961392,22.5051296 143.946393,22.3042657 144.779855,21.9276458 C145.512292,21.5761339 146.143702,21.0990821 146.648831,20.4462743 L146.648831,22.1536177 L149.326013,22.1536177 L149.326013,13.8679806 C149.326013,12.2861771 148.92191,11.0809935 148.113704,10.2524298 C147.204473,9.29832613 145.764856,8.8212743 143.845367,8.8212743 C142.178442,8.8212743 140.865108,9.0974622 139.905364,9.700054 C138.768824,10.3528618 138.061644,11.4073974 137.783823,12.8385529 L140.6378,13.0645248 C140.789339,12.3866091 141.168185,11.8844492 141.723827,11.5580454 C142.203699,11.2567495 142.83511,11.1312095 143.643316,11.1312095 C145.512292,11.1312095 146.44678,11.9597732 146.44678,13.6671166 L146.44678,14.1692765 L143.592803,14.2446004 C141.673314,14.2948164 140.183184,14.6965443 139.122414,15.449784 C137.960618,16.2281317 137.404977,17.3579914 137.404977,18.8142549 C137.404977,19.8938985 137.80908,20.7726782 138.617286,21.4757019 C139.400235,22.1536177 140.461005,22.5051296 141.824852,22.5051296 Z M142.48152,20.3207343 C141.850109,20.3207343 141.34498,20.1449784 140.940877,19.8436825 C140.536774,19.5423866 140.359979,19.1657667 140.359979,18.7138229 C140.359979,17.1571274 141.496519,16.3536717 143.794854,16.3034557 L146.44678,16.2281317 L146.44678,16.8809395 C146.44678,17.8852592 146.042677,18.7138229 145.284984,19.3666307 C144.527291,19.9943305 143.592803,20.3207343 142.48152,20.3207343 Z M156.928199,27.125 L164,9.17278618 L160.868202,9.17278618 L157.55961,18.412527 L154.099479,9.17278618 L150.967681,9.17278618 L156.14525,21.8523218 L153.846914,27.125 L156.928199,27.125 Z" id="AlphaPay"></path>
                <path d="M27.7395736,0.00109316749 C25.6632496,-0.00223172312 23.6072727,0.406185192 21.6928896,1.20225845 C15.1451055,-1.5107927 7.57337546,0.479052626 3.24573234,6.05015841 C-1.08191078,11.6212642 -1.08191078,19.3787358 3.24573234,24.9498416 C7.57337546,30.5209474 15.1451055,32.5107927 21.6928896,29.7977416 C27.538409,32.2198108 34.2819441,30.9126532 38.7738108,26.4867993 C43.2656775,22.0609454 44.6194694,15.3897748 42.2028746,9.58917278 C39.7862798,3.78857073 34.0761792,0.00320391751 27.7395736,0.00109316749 Z M27.7395736,27.3824952 C27.1114052,27.3833892 26.4841857,27.3341499 25.864006,27.2352556 C25.8842695,27.2211822 25.9034516,27.2056407 25.9213947,27.1887589 C28.1758031,25.246083 29.8214379,22.7048843 30.6637896,19.8655254 C30.7185698,19.6795385 30.7707413,19.4909685 30.8176958,19.3023985 C30.8176958,19.3023985 30.8176958,19.2791501 30.8176958,19.2662344 C30.8164753,19.2611387 30.8164753,19.2558311 30.8176958,19.2507355 C30.8176958,19.2249039 30.8176958,19.1990724 30.8176958,19.1732409 C30.8275094,18.68744 30.6394684,18.2181702 30.2959567,17.8712036 C29.9524449,17.5242369 29.4823721,17.3287738 28.9916911,17.328871 L14.4749541,17.328871 C13.5356007,17.3126404 12.7282302,17.9853237 12.583735,18.9045932 C12.5227019,19.4169706 12.6856019,19.9307641 13.0314314,20.3166469 C13.377261,20.7025296 13.8730808,20.9237474 14.3940882,20.9246174 L26.31529,20.9246174 C23.6224087,26.1215994 17.5144804,28.6097239 11.9081791,26.7934953 C6.30187784,24.9772666 2.86004743,19.3953831 3.78974195,13.6271956 C4.71943647,7.85900806 9.74490605,3.61537624 15.6435971,3.61750476 C16.2717655,3.6166108 16.8989851,3.66585006 17.5191647,3.76474438 C17.4989013,3.77881782 17.4797191,3.7943593 17.461776,3.8112411 C15.1637038,5.79353177 13.5000623,8.39709208 12.6750352,11.3023794 C12.6630956,11.3326093 12.653503,11.3636974 12.6463409,11.3953728 L12.6150379,11.5090315 C12.6150379,11.5426125 12.5993865,11.5787766 12.5941693,11.6149407 C12.5889522,11.6511048 12.5941693,11.638189 12.5941693,11.6511048 C12.5941693,11.6640206 12.5941693,11.7182667 12.5941693,11.7518477 C12.5953898,11.7569433 12.5953898,11.762251 12.5941693,11.7673466 C12.5941693,11.7931781 12.5941693,11.8190096 12.5941693,11.8448411 C12.5843557,12.3306421 12.7723967,12.7999118 13.1159084,13.1468785 C13.4594201,13.4938451 13.929493,13.6893082 14.420174,13.6892111 L28.9473453,13.6892111 C29.8866987,13.7054417 30.6940692,13.0327584 30.8385644,12.1134889 C30.9060804,11.5977989 30.7461285,11.078287 30.3995544,10.6876174 C30.0529804,10.2969477 29.5533357,10.0729407 29.0282112,10.0727995 L17.0678807,10.0727995 C19.760762,4.87581745 25.8686903,2.38769297 31.4749916,4.20392159 C37.0812929,6.02015022 40.5231233,11.6020337 39.5934288,17.3702213 C38.6637343,23.1384088 33.6382647,27.3820406 27.7395736,27.3799121 L27.7395736,27.3824952 Z" id="形状"></path>
            </g>
        </g>
    </g>
</svg>